M48
; DRILL file {KiCad 8.0.3} date 2025-03-22T12:49:48+0900
; FORMAT={-:-/ absolute / inch / decimal}
; #@! TF.CreationDate,2025-03-22T12:49:48+09:00
; #@! TF.GenerationSoftware,Kicad,Pcbnew,8.0.3
; #@! TF.FileFunction,Plated,1,2,PTH
FMAT,2
INCH
; #@! TA.AperFunction,Plated,PTH,ViaDrill
T1C0.0118
; #@! TA.AperFunction,Plated,PTH,ComponentDrill
T2C0.0236
; #@! TA.AperFunction,Plated,PTH,ComponentDrill
T3C0.0315
; #@! TA.AperFunction,Plated,PTH,ComponentDrill
T4C0.0354
; #@! TA.AperFunction,Plated,PTH,ComponentDrill
T5C0.0394
; #@! TA.AperFunction,Plated,PTH,ComponentDrill
T6C0.0433
; #@! TA.AperFunction,Plated,PTH,ComponentDrill
T7C0.0472
; #@! TA.AperFunction,Plated,PTH,ComponentDrill
T8C0.0591
; #@! TA.AperFunction,Plated,PTH,ComponentDrill
T9C0.0630
; #@! TA.AperFunction,Plated,PTH,ComponentDrill
T10C0.0787
%
G90
G05
T1
X1.8748Y-5.4317
X1.8748Y-6.1817
X1.9748Y-4.6067
X2.1976Y-5.0089
X2.3748Y-5.4317
X2.3748Y-6.1817
X2.3748Y-6.9567
X2.4248Y-6.5817
X2.8498Y-4.8817
X2.9998Y-5.0317
X3.5248Y-5.5317
X3.5248Y-6.7567
X4.0938Y-4.4048
X4.6998Y-5.0567
X4.8998Y-5.4317
X4.8998Y-6.1817
X4.8998Y-6.9317
T3
X1.4998Y-4.5067
X1.4998Y-5.2567
X1.4998Y-6.0067
X1.4998Y-6.7567
X1.7998Y-4.5067
X1.7998Y-5.2567
X1.7998Y-6.0067
X1.7998Y-6.7567
X2.0248Y-5.2567
X2.0248Y-6.0067
X2.0248Y-6.3067
X2.2498Y-6.0067
X2.2498Y-6.7567
X2.3248Y-5.2567
X2.4748Y-5.2567
X2.5498Y-6.0067
X2.5498Y-6.7567
X2.7748Y-5.2567
X2.7748Y-6.0067
X2.7748Y-6.3067
X2.9998Y-6.0067
X2.9998Y-6.7567
X3.2248Y-5.1317
X3.2248Y-5.2567
X3.2998Y-6.0067
X3.2998Y-6.7567
X3.5248Y-5.1317
X3.5248Y-5.2567
X3.5248Y-6.0067
X3.5248Y-6.3067
X3.7498Y-5.1317
X3.7498Y-5.2567
X3.7498Y-6.0067
X3.7498Y-6.7567
X4.0498Y-3.9817
X4.0498Y-4.2817
X4.0498Y-4.5083
X4.0498Y-4.7051
X4.0498Y-4.8067
X4.0498Y-5.0035
X4.0498Y-5.1317
X4.0498Y-5.2567
X4.0498Y-6.0067
X4.0498Y-6.7567
X4.2748Y-5.2567
X4.2748Y-5.5567
X4.2748Y-6.0067
X4.2748Y-6.3067
X4.4998Y-5.2567
X4.4998Y-6.0067
X4.4998Y-6.7567
X4.7998Y-5.2567
X4.7998Y-6.0067
X4.7998Y-6.7567
T4
X2.0998Y-3.7817
X2.0998Y-3.8817
X2.0998Y-3.9817
X2.0998Y-4.0817
X2.0998Y-4.1817
X2.0998Y-4.2817
X2.0998Y-4.3817
X2.0998Y-4.4817
X2.0998Y-4.5817
X2.0998Y-4.6817
X2.0998Y-4.7817
X2.0998Y-4.8817
X2.6998Y-3.7817
X2.6998Y-3.8817
X2.6998Y-3.9817
X2.6998Y-4.0817
X2.6998Y-4.1817
X2.6998Y-4.2817
X2.6998Y-4.3817
X2.6998Y-4.4817
X2.6998Y-4.5817
X2.6998Y-4.6817
X2.6998Y-4.7817
X2.6998Y-4.8817
X3.8248Y-3.7447
X3.9248Y-3.7447
X4.0998Y-3.7447
X4.1998Y-3.7447
X4.3748Y-3.7447
X4.4748Y-3.7447
T5
X3.1811Y-4.4083
X3.1811Y-4.5067
X3.1811Y-4.6051
X3.4264Y-3.7167
X3.4264Y-4.8504
X3.5248Y-4.8504
X3.6232Y-3.7167
X3.6232Y-4.8504
X4.2094Y-3.9742
X4.2094Y-4.053
X4.2094Y-4.1317
X4.2094Y-4.2104
X4.2094Y-4.2892
X4.9254Y-4.0136
X4.9254Y-4.0923
X4.9254Y-4.1711
X4.9254Y-4.2498
T6
X4.3545Y-4.0333
X4.3545Y-4.1317
X4.3545Y-4.2301
X4.7803Y-4.0333
X4.7803Y-4.1317
X4.7803Y-4.2301
T7
X3.3969Y-4.1031
X3.3969Y-4.2803
X3.6528Y-4.1031
X3.6528Y-4.2803
T8
X1.4998Y-4.0317
X1.4998Y-4.7817
X1.4998Y-5.5317
X1.4998Y-6.2817
X1.4998Y-7.0317
X1.7498Y-3.9317
X1.7498Y-4.6817
X1.7498Y-5.4317
X1.7498Y-6.1817
X1.7498Y-6.9317
X2.1998Y-4.0317
X2.1998Y-4.7817
X2.2498Y-5.5317
X2.2498Y-6.2817
X2.2498Y-7.0317
X2.2998Y-4.2817
X2.2998Y-5.0317
X2.4998Y-5.4317
X2.4998Y-6.1817
X2.4998Y-6.9317
X2.9998Y-5.5317
X2.9998Y-6.2817
X2.9998Y-7.0317
X3.2498Y-5.4317
X3.2498Y-6.1817
X3.2498Y-6.9317
X3.2758Y-4.3098
X3.2758Y-4.7035
X3.387Y-3.8151
X3.6626Y-3.8151
X3.7498Y-5.5317
X3.7498Y-6.2817
X3.7498Y-7.0317
X3.7738Y-4.3098
X3.7738Y-4.7035
X3.9998Y-5.4317
X3.9998Y-6.1817
X3.9998Y-6.9317
X4.4998Y-4.7817
X4.4998Y-5.5317
X4.4998Y-6.2817
X4.4998Y-7.0317
X4.7498Y-4.6817
X4.7498Y-5.4317
X4.7498Y-6.1817
X4.7498Y-6.9317
T9
X3.3555Y-4.5067
X3.6941Y-4.5067
T2
G00X3.0632Y-3.8154
M15
G01X3.0632Y-3.776
M16
G05
G00X3.0632Y-3.9335
M15
G01X3.0632Y-3.8941
M16
G05
G00X3.0632Y-4.0909
M15
G01X3.0632Y-4.0516
M16
G05
G00X3.2364Y-4.1382
M15
G01X3.2364Y-4.0988
M16
G05
T10
G00X4.4693Y-3.9112
M15
G01X4.5008Y-3.9112
M16
G05
G00X4.5008Y-4.3522
M15
G01X4.4693Y-4.3522
M16
G05
G00X4.6341Y-3.9112
M15
G01X4.6656Y-3.9112
M16
G05
G00X4.6656Y-4.3522
M15
G01X4.6341Y-4.3522
M16
G05
M30
