M48
; DRILL file {KiCad 8.0.3} date 2025-03-22T12:49:48+0900
; FORMAT={-:-/ absolute / inch / decimal}
; #@! TF.CreationDate,2025-03-22T12:49:48+09:00
; #@! TF.GenerationSoftware,Kicad,Pcbnew,8.0.3
; #@! TF.FileFunction,NonPlated,1,2,NPTH
FMAT,2
INCH
; #@! TA.AperFunction,NonPlated,NPTH,ComponentDrill
T1C0.0551
; #@! TA.AperFunction,NonPlated,NPTH,ComponentDrill
T2C0.0669
; #@! TA.AperFunction,NonPlated,NPTH,ComponentDrill
T3C0.1181
; #@! TA.AperFunction,NonPlated,NPTH,ComponentDrill
T4C0.1260
; #@! TA.AperFunction,NonPlated,NPTH,ComponentDrill
T5C0.1575
%
G90
G05
T1
X3.1498Y-3.7327
X3.1498Y-4.0083
T2
X1.4498Y-4.1317
X1.4498Y-4.8817
X1.4498Y-5.6317
X1.4498Y-6.3817
X1.4498Y-7.1317
X1.8498Y-4.1317
X1.8498Y-4.8817
X1.8498Y-5.6317
X1.8498Y-6.3817
X1.8498Y-7.1317
X2.1998Y-5.6317
X2.1998Y-6.3817
X2.1998Y-7.1317
X2.3998Y-3.9317
X2.3998Y-4.3317
X2.3998Y-4.6817
X2.3998Y-5.0817
X2.5998Y-5.6317
X2.5998Y-6.3817
X2.5998Y-7.1317
X2.9498Y-5.6317
X2.9498Y-6.3817
X2.9498Y-7.1317
X3.3498Y-5.6317
X3.3498Y-6.3817
X3.3498Y-7.1317
X3.6998Y-5.6317
X3.6998Y-6.3817
X3.6998Y-7.1317
X4.0998Y-5.6317
X4.0998Y-6.3817
X4.0998Y-7.1317
X4.4498Y-4.8817
X4.4498Y-5.6317
X4.4498Y-6.3817
X4.4498Y-7.1317
X4.8498Y-4.8817
X4.8498Y-5.6317
X4.8498Y-6.3817
X4.8498Y-7.1317
T3
X1.5498Y-4.3317
X1.5498Y-5.0817
X1.5498Y-5.8317
X1.5498Y-6.5817
X1.5498Y-7.3317
X1.7998Y-4.2317
X1.7998Y-4.9817
X1.7998Y-5.7317
X1.7998Y-6.4817
X1.7998Y-7.2317
X2.2998Y-5.8317
X2.2998Y-6.5817
X2.2998Y-7.3317
X2.4998Y-3.9817
X2.4998Y-4.7317
X2.5498Y-5.7317
X2.5498Y-6.4817
X2.5498Y-7.2317
X2.5998Y-4.2317
X2.5998Y-4.9817
X3.0498Y-5.8317
X3.0498Y-6.5817
X3.0498Y-7.3317
X3.2998Y-5.7317
X3.2998Y-6.4817
X3.2998Y-7.2317
X3.7998Y-5.8317
X3.7998Y-6.5817
X3.7998Y-7.3317
X4.0498Y-5.7317
X4.0498Y-6.4817
X4.0498Y-7.2317
X4.5498Y-5.0817
X4.5498Y-5.8317
X4.5498Y-6.5817
X4.5498Y-7.3317
X4.7998Y-4.9817
X4.7998Y-5.7317
X4.7998Y-6.4817
X4.7998Y-7.2317
T4
X1.5248Y-3.7197
X2.0248Y-6.7567
X4.2748Y-6.7567
X4.7748Y-3.7197
T5
X1.6498Y-4.1317
X1.6498Y-4.8817
X1.6498Y-5.6317
X1.6498Y-6.3817
X1.6498Y-7.1317
X2.3998Y-4.1317
X2.3998Y-4.8817
X2.3998Y-5.6317
X2.3998Y-6.3817
X2.3998Y-7.1317
X3.1498Y-5.6317
X3.1498Y-6.3817
X3.1498Y-7.1317
X3.8998Y-5.6317
X3.8998Y-6.3817
X3.8998Y-7.1317
X4.6498Y-4.8817
X4.6498Y-5.6317
X4.6498Y-6.3817
X4.6498Y-7.1317
M30
