%TF.GenerationSoftware,KiCad,Pcbnew,8.0.3*%
%TF.CreationDate,2025-03-24T17:59:12+09:00*%
%TF.ProjectId,small_keyboard_v2_1,736d616c-6c5f-46b6-9579-626f6172645f,rev?*%
%TF.SameCoordinates,Original*%
%TF.FileFunction,Soldermask,Top*%
%TF.FilePolarity,Negative*%
%FSLAX46Y46*%
G04 Gerber Fmt 4.6, Leading zero omitted, Abs format (unit mm)*
G04 Created by KiCad (PCBNEW 8.0.3) date 2025-03-24 17:59:12*
%MOMM*%
%LPD*%
G01*
G04 APERTURE LIST*
G04 Aperture macros list*
%AMRoundRect*
0 Rectangle with rounded corners*
0 $1 Rounding radius*
0 $2 $3 $4 $5 $6 $7 $8 $9 X,Y pos of 4 corners*
0 Add a 4 corners polygon primitive as box body*
4,1,4,$2,$3,$4,$5,$6,$7,$8,$9,$2,$3,0*
0 Add four circle primitives for the rounded corners*
1,1,$1+$1,$2,$3*
1,1,$1+$1,$4,$5*
1,1,$1+$1,$6,$7*
1,1,$1+$1,$8,$9*
0 Add four rect primitives between the rounded corners*
20,1,$1+$1,$2,$3,$4,$5,0*
20,1,$1+$1,$4,$5,$6,$7,0*
20,1,$1+$1,$6,$7,$8,$9,0*
20,1,$1+$1,$8,$9,$2,$3,0*%
G04 Aperture macros list end*
%ADD10C,1.600000*%
%ADD11O,1.600000X1.600000*%
%ADD12R,1.800000X1.800000*%
%ADD13C,1.800000*%
%ADD14R,1.600000X1.600000*%
%ADD15C,3.200000*%
%ADD16C,1.700000*%
%ADD17C,3.000000*%
%ADD18C,4.000000*%
%ADD19C,2.200000*%
%ADD20C,2.700000*%
%ADD21C,2.600000*%
%ADD22O,2.600000X1.800000*%
%ADD23C,2.000000*%
%ADD24O,3.800000X2.800000*%
%ADD25RoundRect,0.400000X-0.400000X0.400000X-0.400000X-0.400000X0.400000X-0.400000X0.400000X0.400000X0*%
%ADD26C,2.500000*%
%ADD27C,1.750000*%
%ADD28C,1.850000*%
%ADD29C,1.680000*%
%ADD30C,1.200000*%
%ADD31R,1.200000X2.400000*%
G04 APERTURE END LIST*
D10*
%TO.C,R6*%
X102865000Y-108755000D03*
D11*
X102865000Y-101135000D03*
%TD*%
D12*
%TO.C,LED3*%
X111120000Y-95115000D03*
D13*
X113660000Y-95115000D03*
%TD*%
D14*
%TO.C,D2*%
X51430000Y-133520000D03*
D11*
X59050000Y-133520000D03*
%TD*%
D14*
%TO.C,D12*%
X70480000Y-152570000D03*
D11*
X70480000Y-160190000D03*
%TD*%
D14*
%TO.C,D20*%
X121915000Y-171620000D03*
D11*
X114295000Y-171620000D03*
%TD*%
D15*
%TO.C,REF\u002A\u002A*%
X108580000Y-171620000D03*
%TD*%
D16*
%TO.C,SW3*%
X36825000Y-104945000D03*
D17*
X39365000Y-110025000D03*
D18*
X41905000Y-104945000D03*
D17*
X45715000Y-107485000D03*
D16*
X46985000Y-104945000D03*
D19*
X44445000Y-99865000D03*
X38095000Y-102405000D03*
%TD*%
D15*
%TO.C,REF\u002A\u002A*%
X121280000Y-94480000D03*
%TD*%
D16*
%TO.C,SW6*%
X36825000Y-143045000D03*
D17*
X39365000Y-148125000D03*
D18*
X41905000Y-143045000D03*
D17*
X45715000Y-145585000D03*
D16*
X46985000Y-143045000D03*
D19*
X44445000Y-137965000D03*
X38095000Y-140505000D03*
%TD*%
D14*
%TO.C,D5*%
X121915000Y-133520000D03*
D11*
X114295000Y-133520000D03*
%TD*%
D14*
%TO.C,D16*%
X45715000Y-171620000D03*
D11*
X38095000Y-171620000D03*
%TD*%
D14*
%TO.C,D4*%
X62860000Y-133520000D03*
D11*
X70480000Y-133520000D03*
%TD*%
D16*
%TO.C,SW2*%
X60955000Y-129075000D03*
D17*
X66035000Y-126535000D03*
D18*
X60955000Y-123995000D03*
D17*
X63495000Y-120185000D03*
D16*
X60955000Y-118915000D03*
D19*
X55875000Y-121455000D03*
X58415000Y-127805000D03*
%TD*%
D15*
%TO.C,REF\u002A\u002A*%
X51430000Y-171620000D03*
%TD*%
D14*
%TO.C,D18*%
X83815000Y-171620000D03*
D11*
X76195000Y-171620000D03*
%TD*%
D16*
%TO.C,SW20*%
X113025000Y-181145000D03*
D17*
X115565000Y-186225000D03*
D18*
X118105000Y-181145000D03*
D17*
X121915000Y-183685000D03*
D16*
X123185000Y-181145000D03*
D19*
X120645000Y-176065000D03*
X114295000Y-178605000D03*
%TD*%
D14*
%TO.C,D9*%
X102865000Y-152570000D03*
D11*
X95245000Y-152570000D03*
%TD*%
D14*
%TO.C,D17*%
X64765000Y-171620000D03*
D11*
X57145000Y-171620000D03*
%TD*%
D16*
%TO.C,SW7*%
X55875000Y-143045000D03*
D17*
X58415000Y-148125000D03*
D18*
X60955000Y-143045000D03*
D17*
X64765000Y-145585000D03*
D16*
X66035000Y-143045000D03*
D19*
X63495000Y-137965000D03*
X57145000Y-140505000D03*
%TD*%
D16*
%TO.C,SW19*%
X93975000Y-181145000D03*
D17*
X96515000Y-186225000D03*
D18*
X99055000Y-181145000D03*
D17*
X102865000Y-183685000D03*
D16*
X104135000Y-181145000D03*
D19*
X101595000Y-176065000D03*
X95245000Y-178605000D03*
%TD*%
D14*
%TO.C,D11*%
X51430000Y-152570000D03*
D11*
X51430000Y-160190000D03*
%TD*%
D16*
%TO.C,SW1*%
X36825000Y-123995000D03*
D17*
X39365000Y-129075000D03*
D18*
X41905000Y-123995000D03*
D17*
X45715000Y-126535000D03*
D16*
X46985000Y-123995000D03*
D19*
X44445000Y-118915000D03*
X38095000Y-121455000D03*
%TD*%
D14*
%TO.C,D14*%
X108580000Y-152570000D03*
D11*
X108580000Y-160190000D03*
%TD*%
D12*
%TO.C,LED1*%
X97150000Y-95115000D03*
D13*
X99690000Y-95115000D03*
%TD*%
D20*
%TO.C,JoyStick1*%
X95855000Y-119470000D03*
X95855000Y-109470000D03*
D21*
X93830000Y-114470000D03*
X85230000Y-114470000D03*
D20*
X83205000Y-119470000D03*
X83205000Y-109470000D03*
D22*
X92780000Y-108720000D03*
X86280000Y-108720000D03*
D19*
X92780000Y-104220000D03*
X86280000Y-104220000D03*
D23*
X87030000Y-123200000D03*
X89530000Y-123200000D03*
X92030000Y-123200000D03*
X80800000Y-111970000D03*
X80800000Y-114470000D03*
X80800000Y-116970000D03*
%TD*%
D24*
%TO.C,RotaryEncoder1*%
X118105000Y-110545000D03*
X118105000Y-99345000D03*
D25*
X125105000Y-107945000D03*
D10*
X125105000Y-105945000D03*
X125105000Y-103945000D03*
X125105000Y-101945000D03*
D13*
X110605000Y-102445000D03*
X110605000Y-107445000D03*
X110605000Y-104945000D03*
%TD*%
D10*
%TO.C,C1*%
X102865000Y-119510000D03*
X102865000Y-114510000D03*
%TD*%
%TO.C,C2*%
X102865000Y-122090000D03*
X102865000Y-127090000D03*
%TD*%
D24*
%TO.C,RotaryEncoder2*%
X113920000Y-110545000D03*
X113920000Y-99345000D03*
D10*
X106920000Y-108945000D03*
X106920000Y-106945000D03*
X106920000Y-104945000D03*
X106920000Y-102945000D03*
X106920000Y-100945000D03*
D13*
X121420000Y-107445000D03*
X121420000Y-102445000D03*
X121420000Y-104945000D03*
%TD*%
D14*
%TO.C,D10*%
X108580000Y-133520000D03*
D11*
X108580000Y-141140000D03*
%TD*%
D14*
%TO.C,D7*%
X64765000Y-152570000D03*
D11*
X57145000Y-152570000D03*
%TD*%
D16*
%TO.C,SW17*%
X55875000Y-181145000D03*
D17*
X58415000Y-186225000D03*
D18*
X60955000Y-181145000D03*
D17*
X64765000Y-183685000D03*
D16*
X66035000Y-181145000D03*
D19*
X63495000Y-176065000D03*
X57145000Y-178605000D03*
%TD*%
D16*
%TO.C,SW4*%
X60955000Y-110025000D03*
D17*
X66035000Y-107485000D03*
D18*
X60955000Y-104945000D03*
D17*
X63495000Y-101135000D03*
D16*
X60955000Y-99865000D03*
D19*
X55875000Y-102405000D03*
X58415000Y-108755000D03*
%TD*%
D16*
%TO.C,SW18*%
X74925000Y-181145000D03*
D17*
X77465000Y-186225000D03*
D18*
X80005000Y-181145000D03*
D17*
X83815000Y-183685000D03*
D16*
X85085000Y-181145000D03*
D19*
X82545000Y-176065000D03*
X76195000Y-178605000D03*
%TD*%
D10*
%TO.C,R3*%
X81910000Y-133520000D03*
D11*
X89530000Y-133520000D03*
%TD*%
D16*
%TO.C,SW9*%
X93975000Y-143045000D03*
D17*
X96515000Y-148125000D03*
D18*
X99055000Y-143045000D03*
D17*
X102865000Y-145585000D03*
D16*
X104135000Y-143045000D03*
D19*
X101595000Y-137965000D03*
X95245000Y-140505000D03*
%TD*%
D16*
%TO.C,SW11*%
X36825000Y-162095000D03*
D17*
X39365000Y-167175000D03*
D18*
X41905000Y-162095000D03*
D17*
X45715000Y-164635000D03*
D16*
X46985000Y-162095000D03*
D19*
X44445000Y-157015000D03*
X38095000Y-159555000D03*
%TD*%
D14*
%TO.C,D3*%
X45715000Y-114470000D03*
D11*
X38095000Y-114470000D03*
%TD*%
D12*
%TO.C,LED2*%
X104135000Y-95115000D03*
D13*
X106675000Y-95115000D03*
%TD*%
D14*
%TO.C,D19*%
X102865000Y-171620000D03*
D11*
X95245000Y-171620000D03*
%TD*%
D10*
%TO.C,R5*%
X99690000Y-108755000D03*
D11*
X99690000Y-101135000D03*
%TD*%
D26*
%TO.C,SW_RST1*%
X86030000Y-96904000D03*
X93030000Y-96904000D03*
D27*
X87030000Y-94404000D03*
X92030000Y-94404000D03*
%TD*%
D16*
%TO.C,SW15*%
X113025000Y-162095000D03*
D17*
X115565000Y-167175000D03*
D18*
X118105000Y-162095000D03*
D17*
X121915000Y-164635000D03*
D16*
X123185000Y-162095000D03*
D19*
X120645000Y-157015000D03*
X114295000Y-159555000D03*
%TD*%
D16*
%TO.C,SW13*%
X74925000Y-162095000D03*
D17*
X77465000Y-167175000D03*
D18*
X80005000Y-162095000D03*
D17*
X83815000Y-164635000D03*
D16*
X85085000Y-162095000D03*
D19*
X82545000Y-157015000D03*
X76195000Y-159555000D03*
%TD*%
D14*
%TO.C,D1*%
X45715000Y-133520000D03*
D11*
X38095000Y-133520000D03*
%TD*%
D10*
%TO.C,R4*%
X89530000Y-130345000D03*
D11*
X81910000Y-130345000D03*
%TD*%
D16*
%TO.C,SW5*%
X113025000Y-123995000D03*
D17*
X115565000Y-129075000D03*
D18*
X118105000Y-123995000D03*
D17*
X121915000Y-126535000D03*
D16*
X123185000Y-123995000D03*
D19*
X120645000Y-118915000D03*
X114295000Y-121455000D03*
%TD*%
D28*
%TO.C,ProMicro1*%
X53335000Y-106215000D03*
X53335000Y-108755000D03*
X53335000Y-111295000D03*
X53335000Y-113835000D03*
X53335000Y-116375000D03*
X53335000Y-118915000D03*
X53335000Y-121455000D03*
X53335000Y-123995000D03*
X68575000Y-123995000D03*
X68575000Y-118915000D03*
X68575000Y-116375000D03*
X68575000Y-121455000D03*
X68575000Y-113835000D03*
X68575000Y-111295000D03*
D29*
X68575000Y-108755000D03*
X68575000Y-106215000D03*
D28*
X53335000Y-101135000D03*
X53335000Y-103675000D03*
X68575000Y-98595000D03*
X68575000Y-96055000D03*
X68575000Y-101135000D03*
X53335000Y-98595000D03*
X53335000Y-96055000D03*
X68575000Y-103675000D03*
%TD*%
D14*
%TO.C,D6*%
X45715000Y-152570000D03*
D11*
X38095000Y-152570000D03*
%TD*%
D14*
%TO.C,D8*%
X83815000Y-152570000D03*
D11*
X76195000Y-152570000D03*
%TD*%
D16*
%TO.C,SW14*%
X93975000Y-162095000D03*
D17*
X96515000Y-167175000D03*
D18*
X99055000Y-162095000D03*
D17*
X102865000Y-164635000D03*
D16*
X104135000Y-162095000D03*
D19*
X101595000Y-157015000D03*
X95245000Y-159555000D03*
%TD*%
D14*
%TO.C,D15*%
X121915000Y-152570000D03*
D11*
X114295000Y-152570000D03*
%TD*%
D16*
%TO.C,SW12*%
X55875000Y-162095000D03*
D17*
X58415000Y-167175000D03*
D18*
X60955000Y-162095000D03*
D17*
X64765000Y-164635000D03*
D16*
X66035000Y-162095000D03*
D19*
X63495000Y-157015000D03*
X57145000Y-159555000D03*
%TD*%
D10*
%TO.C,R1*%
X102865000Y-130345000D03*
D11*
X95245000Y-130345000D03*
%TD*%
D16*
%TO.C,SW16*%
X36825000Y-181145000D03*
D17*
X39365000Y-186225000D03*
D18*
X41905000Y-181145000D03*
D17*
X45715000Y-183685000D03*
D16*
X46985000Y-181145000D03*
D19*
X44445000Y-176065000D03*
X38095000Y-178605000D03*
%TD*%
D16*
%TO.C,SW8*%
X74925000Y-143045000D03*
D17*
X77465000Y-148125000D03*
D18*
X80005000Y-143045000D03*
D17*
X83815000Y-145585000D03*
D16*
X85085000Y-143045000D03*
D19*
X82545000Y-137965000D03*
X76195000Y-140505000D03*
%TD*%
D16*
%TO.C,SW10*%
X113025000Y-143045000D03*
D17*
X115565000Y-148125000D03*
D18*
X118105000Y-143045000D03*
D17*
X121915000Y-145585000D03*
D16*
X123185000Y-143045000D03*
D19*
X120645000Y-137965000D03*
X114295000Y-140505000D03*
%TD*%
D10*
%TO.C,R2*%
X102865000Y-133520000D03*
D11*
X95245000Y-133520000D03*
%TD*%
D14*
%TO.C,D13*%
X89530000Y-152570000D03*
D11*
X89530000Y-160190000D03*
%TD*%
D15*
%TO.C,REF\u002A\u002A*%
X38730000Y-94480000D03*
%TD*%
D30*
%TO.C,J1*%
X80005000Y-94810000D03*
X80005000Y-101810000D03*
D31*
X77805000Y-99410000D03*
X77805000Y-96410000D03*
X82205000Y-104610000D03*
X77805000Y-103410000D03*
%TD*%
M02*
